<svg height="1.11in" viewBox="0 0 204.41 79.9" width="2.84in" xmlns="http://www.w3.org/2000/svg"><g fill-rule="evenodd"><path d="M15.33 46.66a29.85 29.85 0 0 0 22.84 22.87 34.71 34.71 0 0 1-2.85-68.41c.56-.13 1-.2 1.76-.42s.8-.77-.24-.69A40 40 0 1 0 67.4 69.06l.14-.15-14.09-12.3A23.71 23.71 0 0 1 19.53 30 24.94 24.94 0 0 1 34.2 13c.56-.22.33-.75-.24-.62C20.9 16.16 12.15 32 15.33 46.66z" fill="#91be37"/><path d="M54.51 41.17a8.94 8.94 0 0 1-7.72 3.62c-5.75 0-8.6-4.18-8.6-8.3a8.71 8.71 0 0 1 9.15-8.77 8.41 8.41 0 0 1 7.1 3.49l-2.23 1.72a4.14 4.14 0 0 0-3.47-1.88c-3.22 0-4.41 2.78-4.41 5.1 0 3.16 2 5 4.29 5a5.83 5.83 0 0 0 4-1.82l1.93 1.89zm16.26-2.31h-3.24l1.66-4.57zm-10 5.5h4.71l.83-2.23H72l.78 2.23h5.84L72 28.13h-4.4l-6.87 16.23zm26.71-16.23h5.08l3.26 8.62 3.42-8.62h4.92l2.53 16.23h-5.38l-.99-8.35-3.26 8.35h-3.52l-3.16-8.35-.88 8.35h-4.41zm35.41 3.03c1.35 0 2.06.78 2.46 2.07a10.87 10.87 0 0 1 .37 3.06c0 1.7-.08 5-2.69 5-2.23 0-2.76-2.42-2.76-5.11a11.54 11.54 0 0 1 .34-3.06 2.31 2.31 0 0 1 2.28-2zm.11-3.37c-5.67 0-8.87 3.69-8.87 8.34 0 5.33 3.79 8.59 9 8.59a8.88 8.88 0 0 0 5.33-1.6 7.82 7.82 0 0 0 3.43-7 7.45 7.45 0 0 0-2.21-5.79 8.86 8.86 0 0 0-6.68-2.54zm18.73 11.61a4.67 4.67 0 0 0 4 2.25c1.62 0 2.59-.72 2.59-1.68s-.94-1.36-1.38-1.5-3-.69-3.56-.87a4.54 4.54 0 0 1-3.54-4.46c0-2.44 1.86-5.4 7-5.4 4.64 0 6 1.93 6.94 3.38l-2.3 1.47a3.66 3.66 0 0 0-3.28-1.75c-1.68 0-2.41.78-2.41 1.66a1.15 1.15 0 0 0 .75 1.12c.56.28 3.59.92 4.25 1.15a4.48 4.48 0 0 1 3.52 4.37c0 3.26-3.05 5.65-7.67 5.65-5 0-6.55-2.84-7.15-4l2.28-1.42zm21.18-11.27h6v10.43c0 .65 0 2.74 2.07 2.74a2.61 2.61 0 0 0 2.34-1.7V28.13h6v16.23h-6V42.2a5.7 5.7 0 0 1-5.07 2.69 4.85 4.85 0 0 1-4.14-1.73 5.63 5.63 0 0 1-1.2-4.11zm26.4 0h3.7l7.03 7.67v-7.67h4.37v16.23h-3.1l-7.63-8.23v8.23h-4.37zM82.16 56a4.68 4.68 0 0 0-2-.55 3.39 3.39 0 0 0-3.48 3.65 3.47 3.47 0 0 0 3.53 3.71 4.26 4.26 0 0 0 2-.49l.55 1.22a5.73 5.73 0 0 1-2.61.67c-3.41 0-5.55-2.25-5.55-5.13 0-2.68 2.13-5 5.58-5a5.44 5.44 0 0 1 2.65.76zm12.32 6.83c-2.06 0-2.79-1.94-2.79-3.82s.83-3.54 2.79-3.54 2.79 1.73 2.79 3.53-.73 3.82-2.79 3.82zm0 1.4c3 0 4.89-2.29 4.89-5.22a4.9 4.9 0 1 0-9.79 0c0 2.93 1.88 5.22 4.9 5.22zm12.31-9.99h1.98v8.5h3.9v1.32h-5.88zm12.91 0h1.97v8.5h3.91v1.32h-5.88zm18.18 1.32h-3.3v2.69h3.23v1.32h-3.23v3.17h3.9v1.32h-5.88v-9.82h5.28zm16.24 4.01v4.06a10.45 10.45 0 0 1-3.28.6c-3.39 0-5.54-2.25-5.54-5.13 0-2.68 2.13-5 5.6-5a5.45 5.45 0 0 1 2.8.76l-.63 1.14a5.05 5.05 0 0 0-2.12-.52 3.4 3.4 0 0 0-3.55 3.65 3.47 3.47 0 0 0 3.36 3.71 3.41 3.41 0 0 0 1.39-.24v-3zm13.33-4.01h-3.3v2.69h3.23v1.32h-3.23v3.17h3.9v1.32h-5.87v-9.82h5.27z" fill="#58595b"/></g></svg>